<?xml version="1.0" encoding="iso-8859-1"?>
<!-- Uploaded to: SVG Repo, www.svgrepo.com, Generator: SVG Repo Mixer Tools -->
<svg version="1.1" id="Layer_1" xmlns="http://www.w3.org/2000/svg" xmlns:xlink="http://www.w3.org/1999/xlink" 
	 viewBox="0 0 490 490" xml:space="preserve">
<g>
	<polygon style="fill:#FFFFFF;" points="382.5,95 382.5,480 42.5,480 42.5,10 297.5,10 297.5,95 	"/>
	<g id="XMLID_52_">
		<g>
			<g id="XMLID_26_">
				<g>
					<polygon style="fill:#CCCCCC;" points="447.5,215 447.5,275 402.5,275 402.5,245 402.5,215 					"/>
					<rect x="162.5" y="245" style="fill:#FFBE48;" width="240" height="30"/>
					<polygon style="fill:#FFD248;" points="402.5,215 402.5,245 162.5,245 162.5,215 382.5,215 					"/>
					<polygon style="fill:#CCCCCC;" points="382.5,95 297.5,95 297.5,10 					"/>
					<polygon style="fill:#CCCCCC;" points="162.5,245 162.5,275 102.5,245 162.5,215 					"/>
				</g>
				<g>
					<path d="M447.5,205h-55V95h-0.024c-0.001-2.601-0.993-5.159-2.905-7.071l-85-85c-1.913-1.912-4.47-2.904-7.071-2.905V0h-255
						c-5.523,0-10,4.477-10,10v470c0,5.523,4.477,10,10,10h340c5.523,0,10-4.477,10-10V285h55c5.523,0,10-4.477,10-10v-60
						C457.5,209.477,453.023,205,447.5,205z M172.5,255h220v10h-220V255z M392.5,235h-220v-10h220V235z M307.5,34.142L358.358,85
						H307.5V34.142z M372.5,470h-320V20h235v75c0,5.523,4.477,10,10,10h75v100h-210v0.018c-1.529,0-3.061,0.332-4.472,1.038l-60,30
						C94.64,237.75,92.5,241.212,92.5,245s2.14,7.251,5.528,8.944l60,30c1.412,0.706,2.943,1.056,4.472,1.056h0.001l0,0h210v185
						H372.5z M152.5,231.18v27.64L124.861,245L152.5,231.18z M437.5,265h-25v-40h25V265z"/>
					<rect x="82.5" y="55" width="60" height="20"/>
					<rect x="82.5" y="95" width="130" height="20"/>
				</g>
			</g>
		</g>
	</g>
</g>
</svg>